<svg width="inherit" height="inherit" viewBox="0 0 40 35" fill="none" xmlns="http://www.w3.org/2000/svg">
<path d="M16.0003 13.6668V13.6668C16.0003 10.7213 13.6125 8.3335 10.667 8.3335V8.3335" stroke="white" stroke-width="2.5" stroke-linecap="round" stroke-linejoin="round"/>
<path d="M23.9997 13.6665H7.99967C6.52692 13.6665 5.33301 14.8604 5.33301 16.3332V26.9998C5.33301 28.4726 6.52692 29.6665 7.99967 29.6665H23.9997C25.4724 29.6665 26.6663 28.4726 26.6663 26.9998V16.3332C26.6663 14.8604 25.4724 13.6665 23.9997 13.6665Z" stroke="white" stroke-width="2.5" stroke-linecap="round" stroke-linejoin="round"/>
<path d="M2.66699 21.6665H5.33366" stroke="white" stroke-width="2.5" stroke-linecap="round" stroke-linejoin="round"/>
<path d="M26.667 21.6665H29.3337" stroke="white" stroke-width="2.5" stroke-linecap="round" stroke-linejoin="round"/>
<path d="M20 20.3335V23.0002" stroke="white" stroke-width="2.5" stroke-linecap="round" stroke-linejoin="round"/>
<path d="M12 20.3335V23.0002" stroke="white" stroke-width="2.5" stroke-linecap="round" stroke-linejoin="round"/>
<path d="M33.3337 3.3335C33.3337 3.12639 33.5038 2.96296 33.7055 2.91576C34.3043 2.77557 34.7757 2.30418 34.9159 1.70533C34.9631 1.50367 35.1266 1.3335 35.3337 1.3335C35.5408 1.3335 35.7042 1.50367 35.7514 1.70533C35.8916 2.30418 36.363 2.77557 36.9618 2.91576C37.1635 2.96296 37.3337 3.12639 37.3337 3.3335C37.3337 3.5406 37.1635 3.70403 36.9618 3.75123C36.363 3.89142 35.8916 4.36281 35.7514 4.96166C35.7042 5.16332 35.5408 5.3335 35.3337 5.3335C35.1266 5.3335 34.9631 5.16332 34.9159 4.96166C34.7757 4.36281 34.3043 3.89142 33.7055 3.75123C33.5038 3.70403 33.3337 3.5406 33.3337 3.3335ZM24.667 8.00016C24.667 7.63197 24.9677 7.33932 25.3309 7.27866C27.0081 6.99849 28.332 5.67463 28.6122 3.99737C28.6728 3.63421 28.9655 3.3335 29.3337 3.3335C29.7018 3.3335 29.9945 3.63421 30.0552 3.99737C30.3353 5.67463 31.6592 6.99849 33.3365 7.27866C33.6996 7.33932 34.0003 7.63197 34.0003 8.00016C34.0003 8.36835 33.6996 8.66101 33.3365 8.72167C31.6592 9.00184 30.3353 10.3257 30.0552 12.003C29.9945 12.3661 29.7018 12.6668 29.3337 12.6668C28.9655 12.6668 28.6728 12.3661 28.6122 12.003C28.332 10.3257 27.0081 9.00183 25.3309 8.72167C24.9677 8.66101 24.667 8.36835 24.667 8.00016ZM36.0003 9.3335C35.7242 9.3335 35.5063 9.5604 35.4433 9.82927C35.2564 10.6277 34.6279 11.2563 33.8294 11.4432C33.5606 11.5061 33.3337 11.724 33.3337 12.0002C33.3337 12.2763 33.5606 12.4942 33.8294 12.5571C34.6279 12.7441 35.2564 13.3726 35.4433 14.1711C35.5063 14.4399 35.7242 14.6668 36.0003 14.6668C36.2765 14.6668 36.4944 14.4399 36.5573 14.1711C36.7442 13.3726 37.3728 12.7441 38.1712 12.5571C38.4401 12.4942 38.667 12.2763 38.667 12.0002C38.667 11.724 38.4401 11.5061 38.1712 11.4432C37.3728 11.2563 36.7442 10.6277 36.5573 9.82927C36.4944 9.5604 36.2765 9.3335 36.0003 9.3335Z" fill="white"/>
</svg>
